<?xml version="1.0" encoding="UTF-8"?>
<svg version="1.1" xmlns="http://www.w3.org/2000/svg" width="300" height="300">
<path d="M0 0 C4.12758939 2.0637947 6.79713956 4.52301101 9.98577881 7.74526978 C10.5813116 8.33909372 11.17684439 8.93291766 11.79042363 9.54473627 C13.78661691 11.53763282 15.77557352 13.5375982 17.76464844 15.53759766 C19.19336215 16.96687544 20.62251626 18.39571311 22.05207825 19.82414246 C25.93430819 23.70579773 29.81033361 27.59359594 33.68529415 31.48250628 C37.73496938 35.54466988 41.79029548 39.60118397 45.84503174 43.65829468 C53.52355179 51.34303506 61.19695865 59.03286024 68.86855245 66.72451437 C77.60214374 75.48044743 86.34140343 84.23071345 95.08114958 92.98050237 C113.06042487 110.98069219 131.03255144 128.9880055 149 147 C153.14128767 145.36836058 155.90649672 142.3605471 158.97232056 139.25473022 C159.86350305 138.36399431 159.86350305 138.36399431 160.77268922 137.45526373 C162.76421058 135.46235233 164.74849042 133.46238335 166.73291016 131.46240234 C168.15836398 130.03311072 169.58427345 128.6042734 171.01060486 127.17585754 C174.08167505 124.09846238 177.14960963 121.01798645 180.21519852 117.93513107 C185.05812432 113.06520344 189.90863103 108.20287508 194.76034546 103.34170532 C205.05447743 93.02535959 215.34014996 82.70059809 225.625 72.375 C236.73404917 61.22195881 247.84450765 50.07034464 258.96472585 38.92843783 C263.79238515 34.09078346 268.61511882 29.2482864 273.43420815 24.40209556 C276.42594485 21.39549578 279.42176925 18.39299533 282.41874886 15.39162254 C283.8129291 13.99368155 285.20537121 12.59400473 286.59598732 11.19251823 C288.48666784 9.28751923 290.38331773 7.3886752 292.28164673 5.49130249 C292.83728007 4.92847923 293.39291341 4.36565596 293.96538413 3.78577745 C297.77181411 0 297.77181411 0 300 0 C300 99 300 198 300 300 C296.76357881 298.3817894 295.26798773 297.51715315 292.86151123 295.10202026 C292.26702179 294.51028015 291.67253235 293.91854004 291.06002808 293.30886841 C290.41985748 292.66150726 289.77968689 292.01414612 289.12011719 291.34716797 C288.43678314 290.66412598 287.7534491 289.98108398 287.04940796 289.27734375 C284.79379024 287.02033362 282.54533778 284.7563237 280.296875 282.4921875 C278.73361108 280.92519314 277.16990477 279.35864001 275.60577393 277.79251099 C271.49141555 273.67051858 267.3830988 269.54255516 263.27600098 265.41333008 C259.08345834 261.20032416 254.88524412 256.99297842 250.6875 252.78515625 C242.45276472 244.5289751 234.22439935 236.26647643 226 228 C223.13433266 229.29872104 221.09525607 230.66271184 218.89515686 232.90470886 C218.30789322 233.49789413 217.72062958 234.09107941 217.11557007 234.70223999 C216.16709702 235.67563828 216.16709702 235.67563828 215.19946289 236.66870117 C214.52416031 237.35334946 213.84885773 238.03799774 213.15309143 238.74339294 C211.68869448 240.22877753 210.22647772 241.71631395 208.76619148 243.20573997 C206.45606153 245.55987962 204.13809719 247.90602287 201.81748962 250.24983215 C195.22082426 256.91373786 188.63243621 263.58565061 182.06469727 270.27807617 C178.04639612 274.37152221 174.01373369 278.45033186 169.9713726 282.52001381 C168.43200531 284.07552502 166.89821865 285.63657906 165.37010384 287.20314598 C163.2368846 289.38911201 161.08594479 291.55602916 158.92993164 293.71948242 C158.2996405 294.3744873 157.66934937 295.02949219 157.0199585 295.7043457 C152.78225589 299.90357207 152.78225589 299.90357207 149.50970459 300.30697632 C145.66337385 298.30392655 142.93018856 295.45142581 139.91479492 292.36889648 C138.87494446 291.32992218 138.87494446 291.32992218 137.81408691 290.2699585 C135.52660468 287.97969107 133.2536136 285.67558473 130.98046875 283.37109375 C129.3966511 281.77981533 127.81194761 280.18941814 126.22639465 278.59986877 C122.05662166 274.41482686 117.89900024 270.21791175 113.74377441 266.01843262 C109.50115383 261.73488708 105.24718041 257.46264938 100.99414062 253.18945312 C92.65159379 244.80401311 84.32183732 236.40598928 76 228 C73.13692016 229.29912276 71.08497743 230.66872337 68.87496948 232.89797974 C68.28337036 233.48971985 67.69177124 234.08145996 67.08224487 234.69113159 C66.44521637 235.33849274 65.80818787 235.98585388 65.15185547 236.65283203 C64.47173401 237.33587402 63.79161255 238.01891602 63.09088135 238.72265625 C61.6165258 240.20461682 60.14448519 241.68888325 58.6744957 243.17517471 C56.35118078 245.52399494 54.02169326 247.86652917 51.69046021 250.20748901 C46.74637029 255.17444041 41.81015125 260.14916916 36.875 265.125 C31.15049402 270.89661898 25.4228542 276.66505138 19.68674088 282.42513657 C17.38593054 284.73896343 15.09119856 287.05870745 12.79660034 289.37869263 C11.39447996 290.78807388 9.99208037 292.19717744 8.58935547 293.60595703 C7.9482785 294.25736664 7.30720154 294.90877625 6.646698 295.57992554 C5.13527914 297.09170807 3.57249992 298.55185726 2 300 C1.34 300 0.68 300 0 300 C0 201 0 102 0 0 Z " fill="#58509D" transform="translate(0,0)"/>
<path d="M0 0 C4.14208869 2.07104435 6.82324512 4.5492275 10.02374268 7.78323364 C10.62335902 8.38114114 11.22297536 8.97904863 11.8407619 9.59507453 C13.85077458 11.60179033 15.85355089 13.61557584 17.85644531 15.62939453 C19.29501112 17.06852441 20.73401732 18.50721417 22.1734314 19.94549561 C26.0825199 23.85400944 29.98540399 27.76866652 33.88722324 31.68443537 C37.96492581 35.77462609 42.04827903 39.8591675 46.13104248 43.94430542 C53.86268641 51.68216974 61.58921722 59.42511897 69.31393504 67.16989696 C78.10798479 75.98628828 86.90770275 84.79701272 95.7079072 93.60725999 C113.81159649 111.73186396 131.90813715 129.86359149 150 148 C148.69077751 150.89207215 147.29678785 152.94929333 145.04627991 155.18077087 C144.1399305 156.0869088 144.1399305 156.0869088 143.215271 157.01135254 C142.55392151 157.66236938 141.89257202 158.31338623 141.21118164 158.98413086 C140.51345139 159.67894058 139.81572113 160.37375031 139.09684753 161.08961487 C137.58215283 162.59670253 136.06515213 164.10147528 134.54612923 165.60420036 C132.14186799 167.98293786 129.74390705 170.36786472 127.34751892 172.75453186 C121.39403766 178.68126617 115.4297862 184.59712486 109.46588135 190.5133667 C104.42733679 195.51245571 99.39289687 200.51561012 94.36385918 205.52426338 C92.00200169 207.87315936 89.63419682 210.21594654 87.26612854 212.55857849 C85.81652749 214.00091327 84.36720718 215.44353027 82.91821289 216.88647461 C82.25888763 217.53546722 81.59956238 218.18445984 80.92025757 218.8531189 C77.69445662 222.07817064 75.34648405 225.076957 73 229 C70.83068481 231.46746463 68.50334829 233.76995205 66.17358398 236.08520508 C65.13899048 237.12505554 65.13899048 237.12505554 64.08349609 238.18591309 C61.80935749 240.46883282 59.5280071 242.74438478 57.24609375 245.01953125 C55.66304223 246.60392999 54.08028771 248.18862552 52.49781799 249.77360535 C49.18481255 253.08955676 45.86822249 256.40186957 42.54907227 259.71166992 C38.28598382 263.96333628 34.03197322 268.22395478 29.78057766 272.48730946 C26.51664778 275.75844828 23.24799179 279.02483093 19.9778614 282.28977013 C18.4066371 283.85965671 16.83690691 285.43104011 15.26867485 287.00391579 C13.08291303 289.19472995 10.89088963 291.37907527 8.69702148 293.56176758 C8.04502274 294.21781479 7.39302399 294.873862 6.7212677 295.54978943 C2.2285317 300 2.2285317 300 0 300 C0 201 0 102 0 0 Z " fill="#BB4996" transform="translate(0,0)"/>
<path d="M0 0 C0 49.5 0 99 0 150 C-3.23040367 148.38479816 -4.76015595 147.49237839 -7.18318176 145.0909729 C-7.78753052 144.49659927 -8.39187927 143.90222565 -9.01454163 143.2898407 C-9.665634 142.63941299 -10.31672638 141.98898529 -10.98754883 141.31884766 C-11.68224274 140.63247726 -12.37693665 139.94610687 -13.09268188 139.23893738 C-15.38627807 136.96943016 -17.6721483 134.69233978 -19.95703125 132.4140625 C-21.54546969 130.83458769 -23.13398698 129.25519218 -24.72257996 127.6758728 C-28.0491754 124.36576444 -31.37135365 121.05128936 -34.69116211 117.734375 C-38.95466025 113.47627549 -43.2340956 109.23458386 -47.51762867 104.9966526 C-50.80216801 101.74178129 -54.07547033 98.47578803 -57.34570885 95.20655441 C-58.91936694 93.63711515 -60.4971656 92.07181662 -62.07908058 90.51070023 C-64.28446704 88.33202728 -66.47365674 86.13827222 -68.65942383 83.93994141 C-69.32063736 83.29356216 -69.98185089 82.64718292 -70.6631012 81.98121643 C-71.25335083 81.38120316 -71.84360046 80.78118988 -72.45173645 80.16299438 C-72.97104138 79.64570078 -73.49034632 79.12840717 -74.02538776 78.595438 C-75 77 -75 77 -74.83957195 75.00558662 C-73.88961718 72.73631526 -72.85452881 71.48227782 -71.1151123 69.74761963 C-70.50094955 69.12788773 -69.8867868 68.50815582 -69.25401306 67.86964417 C-68.57657547 67.20142136 -67.89913788 66.53319855 -67.20117188 65.84472656 C-66.49062149 65.13213181 -65.78007111 64.41953705 -65.04798889 63.68534851 C-62.69543521 61.32978444 -60.33230836 58.98514282 -57.96875 56.640625 C-56.33531496 55.01024664 -54.70246919 53.37927769 -53.07019043 51.7477417 C-49.64817494 48.3303306 -46.22130352 44.91789308 -42.79052734 41.50927734 C-38.3815843 37.12866142 -33.98140678 32.73937254 -29.58437347 28.34680557 C-26.21355895 24.98013677 -22.83992194 21.61630939 -19.46522522 18.25353241 C-17.84115938 16.63518342 -16.21757405 15.01635208 -14.59446716 13.39704132 C-12.33186937 11.14127779 -10.06591745 8.88894356 -7.79882812 6.63769531 C-6.78267174 5.62321571 -6.78267174 5.62321571 -5.74598694 4.58824158 C-1.1146861 0 -1.1146861 0 0 0 Z " fill="#5171B4" transform="translate(300,150)"/>
</svg>
