<svg version="1.1" id="Layer_1" xmlns="http://www.w3.org/2000/svg" xmlns:xlink="http://www.w3.org/1999/xlink" x="0px" y="0px"
	 width="100%" viewBox="0 0 1920 1080" enable-background="new 0 0 1920 1080" xml:space="preserve">
<path fill="#000000" opacity="1.000000" stroke="none" 
	d="
M1257.000000,1081.000000 
	C838.000061,1081.000000 419.500153,1081.000000 1.000168,1081.000000 
	C1.000112,721.000122 1.000112,361.000275 1.000056,1.000313 
	C640.999756,1.000209 1280.999512,1.000209 1920.999512,1.000104 
	C1920.999634,360.999664 1920.999634,720.999329 1920.999756,1080.999512 
	C1699.833374,1081.000000 1478.666626,1081.000000 1257.000000,1081.000000 
M1070.868286,507.642792 
	C1068.798462,505.724884 1066.512939,503.991272 1064.692261,501.860413 
	C1047.391479,481.610870 1030.351562,461.134308 1012.796753,441.108765 
	C1008.417725,436.113403 1007.510193,430.806519 1009.561462,425.554230 
	C1012.166565,418.883698 1015.377319,411.975220 1020.036682,406.671387 
	C1033.439087,391.415131 1051.674927,389.460327 1070.092285,392.601776 
	C1105.549805,398.649811 1135.703857,415.750122 1161.089600,440.914978 
	C1170.944580,450.684235 1179.354492,461.911469 1188.808838,472.924408 
	C1193.617188,469.253906 1199.132446,465.037720 1204.654419,460.830414 
	C1210.154053,456.640198 1215.660522,452.458923 1222.215454,447.474121 
	C1176.501587,386.521698 1117.253662,352.665100 1040.842651,349.133392 
	C1063.237427,326.177826 1085.951782,302.894714 1109.263672,278.999084 
	C1093.980713,278.999084 1079.815918,278.855896 1065.659424,279.135681 
	C1063.212158,279.184082 1060.185669,280.409271 1058.461548,282.128571 
	C1008.671326,331.777771 959.009583,381.555725 909.346802,431.332581 
	C907.424316,433.259491 905.696838,435.380981 903.878540,437.411804 
	C903.509277,437.153076 903.139954,436.894318 902.770691,436.635590 
	C902.770691,384.241852 902.770691,331.848114 902.770691,279.273651 
	C888.673889,279.273651 874.957703,279.273651 860.997681,279.273651 
	C860.997681,281.356232 860.997742,283.164429 860.997742,284.972626 
	C860.997742,371.460358 861.447998,457.952484 860.609375,544.432068 
	C860.445923,561.286377 865.185364,574.864258 874.467834,588.098633 
	C897.274902,620.615540 926.840820,644.697632 962.756958,661.468872 
	C989.328064,673.876587 1016.469849,683.708740 1046.217529,684.068848 
	C1073.642944,684.400879 1098.317383,677.068298 1117.426392,656.389893 
	C1133.713135,638.765442 1142.745850,618.192932 1138.947510,593.599121 
	C1136.404053,577.129883 1127.734253,563.580383 1117.291992,551.034180 
	C1103.790771,534.812744 1087.568726,521.493408 1070.868286,507.642792 
z"/>
<path fill="#FDFDFD" opacity="1.000000" stroke="none" 
	d="
M1071.144897,507.869476 
	C1087.568726,521.493408 1103.790771,534.812744 1117.291992,551.034180 
	C1127.734253,563.580383 1136.404053,577.129883 1138.947510,593.599121 
	C1142.745850,618.192932 1133.713135,638.765442 1117.426392,656.389893 
	C1098.317383,677.068298 1073.642944,684.400879 1046.217529,684.068848 
	C1016.469849,683.708740 989.328064,673.876587 962.756958,661.468872 
	C926.840820,644.697632 897.274902,620.615540 874.467834,588.098633 
	C865.185364,574.864258 860.445923,561.286377 860.609375,544.432068 
	C861.447998,457.952484 860.997742,371.460358 860.997742,284.972626 
	C860.997742,283.164429 860.997681,281.356232 860.997681,279.273651 
	C874.957703,279.273651 888.673889,279.273651 902.770691,279.273651 
	C902.770691,331.848114 902.770691,384.241852 902.770691,436.635590 
	C903.139954,436.894318 903.509277,437.153076 903.878540,437.411804 
	C905.696838,435.380981 907.424316,433.259491 909.346802,431.332581 
	C959.009583,381.555725 1008.671326,331.777771 1058.461548,282.128571 
	C1060.185669,280.409271 1063.212158,279.184082 1065.659424,279.135681 
	C1079.815918,278.855896 1093.980713,278.999084 1109.263672,278.999084 
	C1085.951782,302.894714 1063.237427,326.177826 1040.842651,349.133392 
	C1117.253662,352.665100 1176.501587,386.521698 1222.215454,447.474121 
	C1215.660522,452.458923 1210.154053,456.640198 1204.654419,460.830414 
	C1199.132446,465.037720 1193.617188,469.253906 1188.808838,472.924408 
	C1179.354492,461.911469 1170.944580,450.684235 1161.089600,440.914978 
	C1135.703857,415.750122 1105.549805,398.649811 1070.092285,392.601776 
	C1051.674927,389.460327 1033.439087,391.415131 1020.036682,406.671387 
	C1015.377319,411.975220 1012.166565,418.883698 1009.561462,425.554230 
	C1007.510193,430.806519 1008.417725,436.113403 1012.796753,441.108765 
	C1030.351562,461.134308 1047.391479,481.610870 1064.692261,501.860413 
	C1066.512939,503.991272 1068.798462,505.724884 1071.144897,507.869476 
M1043.459106,542.040344 
	C1042.697632,541.393921 1041.940552,540.742249 1041.174072,540.101746 
	C1020.628418,522.931213 999.128052,506.810181 981.687195,486.218079 
	C970.714294,473.262604 961.753357,459.261017 958.878418,442.086578 
	C958.633484,440.623108 957.445496,439.317505 956.649841,437.854401 
	C955.827087,438.309937 955.323303,438.462433 954.992920,438.789917 
	C938.198303,455.435242 921.382202,472.059479 904.713562,488.830200 
	C903.525208,490.025879 902.923035,492.303467 902.906555,494.085907 
	C902.769287,508.914215 902.363037,523.766174 903.047729,538.564209 
	C903.362000,545.355286 905.038269,552.418457 907.669373,558.699585 
	C913.782898,573.293640 925.289795,584.049316 936.417664,594.713867 
	C954.129272,611.688110 974.921021,624.130310 997.677612,633.251099 
	C1015.751404,640.494934 1034.195679,645.560974 1053.950684,642.018921 
	C1073.910034,638.440308 1089.253296,621.055420 1088.804199,602.395935 
	C1088.547852,591.748901 1083.967163,582.496460 1077.042969,575.007385 
	C1066.564087,563.673462 1055.081787,553.267212 1043.459106,542.040344 
z"/>
<path fill="#010101" opacity="1.000000" stroke="none" 
	d="
M1043.742432,542.253540 
	C1055.081787,553.267212 1066.564087,563.673462 1077.042969,575.007385 
	C1083.967163,582.496460 1088.547852,591.748901 1088.804199,602.395935 
	C1089.253296,621.055420 1073.910034,638.440308 1053.950684,642.018921 
	C1034.195679,645.560974 1015.751404,640.494934 997.677612,633.251099 
	C974.921021,624.130310 954.129272,611.688110 936.417664,594.713867 
	C925.289795,584.049316 913.782898,573.293640 907.669373,558.699585 
	C905.038269,552.418457 903.362000,545.355286 903.047729,538.564209 
	C902.363037,523.766174 902.769287,508.914215 902.906555,494.085907 
	C902.923035,492.303467 903.525208,490.025879 904.713562,488.830200 
	C921.382202,472.059479 938.198303,455.435242 954.992920,438.789917 
	C955.323303,438.462433 955.827087,438.309937 956.649841,437.854401 
	C957.445496,439.317505 958.633484,440.623108 958.878418,442.086578 
	C961.753357,459.261017 970.714294,473.262604 981.687195,486.218079 
	C999.128052,506.810181 1020.628418,522.931213 1041.174072,540.101746 
	C1041.940552,540.742249 1042.697632,541.393921 1043.742432,542.253540 
z"/>
</svg>