<?xml version="1.0" encoding="UTF-8"?>
<svg version="1.1" xmlns="http://www.w3.org/2000/svg" width="2048" height="1229">
<path d="M0 0 C3.68759428 0.64751958 7.39258192 1.07332671 11.11230469 1.48828125 C17.23568496 2.21055888 23.17154757 3.34397692 29.18261719 4.70703125 C32.15157088 5.36520894 35.11489257 5.9163061 38.11230469 6.42578125 C42.74644513 7.24117253 47.21023007 8.42021237 51.73339844 9.70703125 C54.32923227 10.40025828 56.90889242 10.93596754 59.54980469 11.42578125 C63.58836522 12.19138514 67.33713652 13.34575729 71.20996094 14.70703125 C73.43648182 15.42957065 75.63394956 15.94934691 77.92480469 16.42578125 C81.77730784 17.23367186 85.41963797 18.36256188 89.13574219 19.65234375 C91.40429682 20.41885197 93.68425935 21.08356937 95.98730469 21.73828125 C102.60005352 23.69951576 109.01616894 26.20378566 115.45263672 28.67041016 C117.27374351 29.36792246 119.09721859 30.05924305 120.92089844 30.75 C131.42868698 34.74876227 141.67081817 38.97157154 151.68652344 44.08984375 C153.94171776 45.19009547 156.12175082 46.10675038 158.48730469 46.92578125 C162.62912665 48.39655068 166.33804593 50.47731047 170.16699219 52.62109375 C173.34072958 54.37920727 176.5411811 56.07325419 179.75512695 57.75610352 C189.27305968 62.74357105 198.43664871 68.03007387 207.33886719 74.05859375 C209.18791683 75.27051767 211.0493547 76.36473171 212.98730469 77.42578125 C216.38331524 79.40164193 219.36522763 81.61087752 222.47167969 84 C224.67623848 85.60932792 227.01520363 86.87646848 229.40527344 88.1875 C233.15526931 90.48682049 236.58195489 93.24086824 240.07324219 95.91015625 C242.43772752 97.70586017 244.83940511 99.43288771 247.27636719 101.12890625 C247.91501709 101.57476074 248.55366699 102.02061523 249.21166992 102.47998047 C250.45952462 103.34714731 251.71153908 104.2083647 252.96801758 105.06298828 C257.3144897 108.09483629 257.3144897 108.09483629 258.42480469 111.42578125 C259.7458105 111.80503386 261.0818084 112.13380545 262.42480469 112.42578125 C264.69513023 114.20733607 266.84083224 116.00606946 268.98730469 117.92578125 C270.23771363 119.02185307 271.48902637 120.11689465 272.74121094 121.2109375 C273.36141113 121.75508301 273.98161133 122.29922852 274.62060547 122.85986328 C277.18030456 125.08150198 279.79542954 127.22443425 282.42480469 129.36328125 C283.74351562 130.43642578 283.74351562 130.43642578 285.08886719 131.53125 C286.47937289 132.65900128 287.86996539 133.78664556 289.26074219 134.9140625 C292.51218346 137.57958415 295.45392035 140.45489692 298.42480469 143.42578125 C299.81699219 144.50859375 299.81699219 144.50859375 301.23730469 145.61328125 C301.95917969 146.21140625 302.68105469 146.80953125 303.42480469 147.42578125 C303.42480469 148.08578125 303.42480469 148.74578125 303.42480469 149.42578125 C303.99714844 149.66941406 304.56949219 149.91304687 305.15917969 150.1640625 C307.82914007 151.65095423 309.56309475 153.40662033 311.67480469 155.61328125 C314.34390401 158.39440482 317.0710287 161.00411559 319.99975586 163.50512695 C324.82250303 167.71036344 329.32595142 172.20146143 333.83496094 176.73828125 C335.22436855 178.12993036 336.61377629 179.52157934 338.00318909 180.91322327 C339.48126435 182.39464768 340.95808372 183.87731349 342.43453979 185.36035156 C345.5262352 188.46568606 348.6218457 191.56709839 351.71801758 194.66796875 C358.8475539 201.8094951 365.97204414 208.95604849 373.09648132 216.10266113 C379.63169131 222.65810766 386.16798972 229.21245934 392.70836163 235.76275635 C395.77926607 238.83861045 398.8477236 241.91687778 401.91426086 244.99708557 C403.36580998 246.45433086 404.81852639 247.91040054 406.27175903 249.3659668 C408.03408316 251.13113404 409.79463247 252.89807601 411.552948 254.66723633 C418.11481426 261.22968786 424.98276676 267.30447803 432.17480469 273.1640625 C433.42480469 274.42578125 433.42480469 274.42578125 433.42480469 276.42578125 C434.30990723 276.83328613 434.30990723 276.83328613 435.21289062 277.24902344 C437.38415884 278.4041573 438.98497285 279.62271165 440.81542969 281.25390625 C441.43893311 281.80377197 442.06243652 282.3536377 442.70483398 282.92016602 C443.35492432 283.49951904 444.00501465 284.07887207 444.67480469 284.67578125 C449.29891087 288.74840386 453.91968819 292.69014782 458.92480469 296.29296875 C460.94557488 297.81907124 462.63666205 299.63763862 464.42480469 301.42578125 C466.07037035 302.46013681 467.74186549 303.45341638 469.42480469 304.42578125 C471.03752251 305.43305113 472.64111882 306.45501359 474.23730469 307.48828125 C475.0275 307.99488281 475.81769531 308.50148438 476.63183594 309.0234375 C477.22351562 309.48621094 477.81519531 309.94898438 478.42480469 310.42578125 C478.42480469 311.08578125 478.42480469 311.74578125 478.42480469 312.42578125 C478.98941406 312.52890625 479.55402344 312.63203125 480.13574219 312.73828125 C482.84703208 313.55259357 484.72933491 314.81154141 487.04980469 316.42578125 C490.14570774 318.58105238 490.14570774 318.58105238 493.42480469 320.42578125 C493.42480469 321.08578125 493.42480469 321.74578125 493.42480469 322.42578125 C494.11574219 322.51472656 494.80667969 322.60367187 495.51855469 322.6953125 C499.11415508 323.5990454 501.74935579 325.20145708 504.92480469 327.11328125 C510.64493691 330.49163475 516.45502823 333.40493075 522.52636719 336.1171875 C524.95636528 337.21428906 527.3141977 338.37699498 529.67480469 339.61328125 C532.23475342 340.91027417 534.76243635 341.93411679 537.49121094 342.8203125 C538.28188965 343.07852783 539.07256836 343.33674316 539.88720703 343.6027832 C540.72461426 343.87437256 541.56202148 344.14596191 542.42480469 344.42578125 C543.27123535 344.70574951 544.11766602 344.98571777 544.98974609 345.27416992 C556.0639427 348.93306806 566.96076098 352.23474947 578.42480469 354.42578125 C579.33963623 354.64584839 579.33963623 354.64584839 580.27294922 354.87036133 C586.99028055 356.48324433 593.78792576 357.36854929 600.63427734 358.23071289 C602.65766161 358.48611734 604.6799056 358.74939871 606.70214844 359.01367188 C632.58761747 362.35236846 657.59347003 362.06212732 683.42480469 358.42578125 C684.30249512 358.30831543 685.18018555 358.19084961 686.08447266 358.06982422 C703.68338265 355.70146944 720.71520008 351.43051617 737.42480469 345.42578125 C738.08464355 345.19246094 738.74448242 344.95914062 739.42431641 344.71875 C747.26934382 341.93569071 754.80898209 338.92452164 762.20214844 335.0703125 C766.94809116 332.64844355 771.79140241 330.43842291 776.6394043 328.22900391 C780.22176662 326.57060319 783.32792745 324.90599365 786.42480469 322.42578125 C787.92812568 321.50086105 789.44954377 320.60473537 790.98730469 319.73828125 C791.75171875 319.30128906 792.51613281 318.86429688 793.30371094 318.4140625 C795.42480469 317.42578125 795.42480469 317.42578125 798.42480469 317.42578125 C798.42480469 316.76578125 798.42480469 316.10578125 798.42480469 315.42578125 C800.54199219 313.98828125 800.54199219 313.98828125 803.29980469 312.42578125 C807.11363848 310.25833936 807.11363848 310.25833936 810.42480469 307.42578125 C811.41480469 307.42578125 812.40480469 307.42578125 813.42480469 307.42578125 C813.42480469 306.76578125 813.42480469 306.10578125 813.42480469 305.42578125 C815.43652344 303.76953125 815.43652344 303.76953125 818.11230469 301.92578125 C818.98242188 301.31734375 819.85253906 300.70890625 820.74902344 300.08203125 C823.42480469 298.42578125 823.42480469 298.42578125 826.19433594 297.39453125 C827.29841797 296.915 827.29841797 296.915 828.42480469 296.42578125 C828.75480469 295.43578125 829.08480469 294.44578125 829.42480469 293.42578125 C830.75813802 293.09244792 832.09147135 292.75911458 833.42480469 292.42578125 C833.75480469 291.43578125 834.08480469 290.44578125 834.42480469 289.42578125 C836.47676174 287.71581704 838.52056057 286.12050398 840.67480469 284.55078125 C844.93164448 281.42272145 848.72997218 278.23081052 852.42480469 274.42578125 C853.20855469 273.82765625 853.99230469 273.22953125 854.79980469 272.61328125 C857.08713166 270.70717544 858.82283784 268.87070248 860.73730469 266.61328125 C863.14025685 263.79333088 865.5956643 261.31714363 868.42480469 258.92578125 C871.9204578 255.96428016 874.87518047 252.75952183 877.83496094 249.26953125 C879.90956136 246.86360643 882.17912541 244.67146053 884.42480469 242.42578125 C885.66230469 240.94078125 885.66230469 240.94078125 886.92480469 239.42578125 C889.42480469 236.42578125 889.42480469 236.42578125 891.75683594 234.12109375 C894.54240194 231.30697876 897.09665728 228.35304935 899.61230469 225.30078125 C900.04994141 224.77613281 900.48757813 224.25148438 900.93847656 223.7109375 C902.90181636 221.34293988 904.71647305 218.9882787 906.42480469 216.42578125 C907.08480469 216.42578125 907.74480469 216.42578125 908.42480469 216.42578125 C909.08480469 214.77578125 909.74480469 213.12578125 910.42480469 211.42578125 C911.08480469 211.42578125 911.74480469 211.42578125 912.42480469 211.42578125 C912.63105469 210.76578125 912.83730469 210.10578125 913.04980469 209.42578125 C914.90796621 205.37161065 917.30019795 201.62989452 920.42480469 198.42578125 C921.41480469 198.42578125 922.40480469 198.42578125 923.42480469 198.42578125 C915.97316826 232.81563496 904.96987159 266.42903563 891.79589844 299.02734375 C890.63523169 301.90421006 889.49632036 304.78836784 888.36230469 307.67578125 C886.62988985 312.01041257 884.7253606 316.25464497 882.76855469 320.4921875 C881.6852855 322.8571153 880.62668024 325.22945447 879.57714844 327.609375 C877.29472581 332.75365385 874.90294775 337.84294271 872.48730469 342.92578125 C871.86178711 344.25416016 871.86178711 344.25416016 871.22363281 345.609375 C868.49916425 351.34465504 865.55360037 356.90233622 862.42480469 362.42578125 C861.52671843 364.09123501 860.63051358 365.75770661 859.73730469 367.42578125 C852.8307499 380.08779836 845.32863705 392.36601408 837.42480469 404.42578125 C836.8228125 405.37195312 836.22082031 406.318125 835.60058594 407.29296875 C835.06820313 408.12054687 834.53582031 408.948125 833.98730469 409.80078125 C833.53484375 410.50976562 833.08238281 411.21875 832.61621094 411.94921875 C832.22304687 412.43648437 831.82988281 412.92375 831.42480469 413.42578125 C830.76480469 413.42578125 830.10480469 413.42578125 829.42480469 413.42578125 C829.30580811 414.01786377 829.18681152 414.60994629 829.06420898 415.2199707 C828.00656213 418.86863024 825.5216148 421.63930673 823.23730469 424.61328125 C822.70919189 425.30873047 822.1810791 426.00417969 821.63696289 426.72070312 C813.77184824 436.99481757 805.52215743 446.97592184 796.94677734 456.6640625 C795.61452385 458.20617691 794.35645563 459.81174759 793.11230469 461.42578125 C792.55542969 462.08578125 791.99855469 462.74578125 791.42480469 463.42578125 C790.76480469 463.42578125 790.10480469 463.42578125 789.42480469 463.42578125 C789.15667969 464.06515625 788.88855469 464.70453125 788.61230469 465.36328125 C787.42480469 467.42578125 787.42480469 467.42578125 784.42480469 468.42578125 C784.19792969 469.12703125 783.97105469 469.82828125 783.73730469 470.55078125 C781.35863716 475.76119583 776.35596353 478.96563676 771.86230469 482.36328125 C768.90657866 484.8642802 766.59160797 487.70544183 764.17089844 490.71875 C762.42480469 492.42578125 762.42480469 492.42578125 760.33496094 492.9140625 C759.70460938 493.08292969 759.07425781 493.25179688 758.42480469 493.42578125 C758.13476562 494.01230469 757.84472656 494.59882812 757.54589844 495.203125 C755.90841241 498.44956943 753.42045246 499.88708085 750.48730469 501.98828125 C747.23862145 504.32907002 744.21368545 506.56090919 741.42480469 509.42578125 C737.94709433 512.291834 734.36519166 515.00312236 730.73730469 517.67578125 C729.7846875 518.3821875 728.83207031 519.08859375 727.85058594 519.81640625 C725.42480469 521.42578125 725.42480469 521.42578125 723.42480469 521.42578125 C723.42480469 522.08578125 723.42480469 522.74578125 723.42480469 523.42578125 C721.78719247 524.47268335 720.11380772 525.46398786 718.42480469 526.42578125 C715.90668971 528.22780728 713.41312271 530.05943322 710.92480469 531.90234375 C708.35544439 533.46804768 706.38587883 534.03449645 703.42480469 534.42578125 C703.42480469 535.08578125 703.42480469 535.74578125 703.42480469 536.42578125 C702.91433594 536.70550781 702.40386719 536.98523437 701.87792969 537.2734375 C697.35802227 539.76579779 692.87832674 542.3164741 688.42480469 544.92578125 C684.83044408 547.02667817 681.23619687 549.12615228 677.61230469 551.17578125 C676.96648437 551.541875 676.32066406 551.90796875 675.65527344 552.28515625 C673.83874551 553.21409873 671.97289513 554.04608064 670.09667969 554.84765625 C666.47463172 556.40436623 662.99444313 558.1268441 659.48730469 559.92578125 C654.54726752 562.43189885 649.64203009 564.56880272 644.42480469 566.42578125 C643.04983745 567.02338664 641.68035701 567.63371232 640.31542969 568.25390625 C635.41736776 570.44762705 630.46754873 572.48925058 625.48730469 574.48828125 C624.65779297 574.82666016 623.82828125 575.16503906 622.97363281 575.51367188 C617.91367892 577.54630292 612.84463135 579.2568942 607.60620117 580.76928711 C605.1461821 581.50963309 602.80649371 582.46648984 600.42480469 583.42578125 C597.41613434 584.22595953 594.3930641 584.93323057 591.36230469 585.64453125 C588.47067658 586.35010204 588.47067658 586.35010204 585.97949219 587.40625 C580.04545584 589.77442047 573.63717069 590.96632469 567.42480469 592.42578125 C566.61785156 592.61543457 565.81089844 592.80508789 564.97949219 593.00048828 C558.14998325 594.58496607 551.29600785 596.03397024 544.42480469 597.42578125 C542.65145752 597.78591309 542.65145752 597.78591309 540.84228516 598.15332031 C499.87538719 606.30313505 458.73139677 609.29608707 417.00683594 609.07763672 C411.52230183 609.04915197 406.03898213 609.06614872 400.55448914 609.09483719 C377.74415879 609.1957559 355.18287512 608.52730004 332.48730469 606.13671875 C331.03088562 605.98469938 331.03088562 605.98469938 329.54504395 605.82960892 C317.5503403 604.54639767 305.75205084 602.690526 293.92651367 600.3107605 C290.10673375 599.54366902 286.28127183 598.90686073 282.42480469 598.34765625 C276.02488287 597.40455323 269.73531926 596.09197327 263.42480469 594.67578125 C262.25780029 594.41482666 261.0907959 594.15387207 259.88842773 593.88500977 C249.27508784 591.46765155 238.83394862 588.60093196 228.42480469 585.42578125 C227.69729004 585.20535156 226.96977539 584.98492188 226.22021484 584.7578125 C221.60792698 583.35531999 217.01321366 581.90453274 212.42480469 580.42578125 C211.78849121 580.22098145 211.15217773 580.01618164 210.49658203 579.80517578 C198.5254939 575.93564162 186.83784908 571.49462221 175.24902344 566.6015625 C172.69736875 565.53925536 170.13035219 564.54006129 167.54980469 563.55078125 C161.63840988 561.19751899 156.00886511 558.29034793 150.34716797 555.40087891 C148.35647792 554.39112325 146.35876593 553.39668629 144.35839844 552.40625 C134.00519928 547.27869447 123.84755976 541.94809774 113.97558594 535.93359375 C111.22687026 534.30877866 108.43016681 532.80213215 105.61230469 531.30078125 C101.87708399 529.28910559 98.68943781 527.14630885 95.42480469 524.42578125 C93.72677047 523.46462981 92.02813204 522.50438543 90.31933594 521.5625 C87.47029341 519.85307448 84.89284305 517.81885286 82.26074219 515.796875 C80.36295709 514.33151636 80.36295709 514.33151636 77.92480469 512.92578125 C74.97565999 511.15629443 72.30784029 509.12011051 69.58496094 507.0234375 C67.93951049 505.80645878 66.25125485 504.64713014 64.54589844 503.515625 C55.67807572 497.57784634 47.50258062 490.73148514 39.44848633 483.75024414 C36.1384351 480.88344151 32.79716931 478.08115957 29.36230469 475.36328125 C25.29958532 472.14159227 21.28326596 468.86970301 17.29980469 465.55078125 C16.71835693 465.07374756 16.13690918 464.59671387 15.5378418 464.10522461 C14.12827216 462.92325832 12.77115759 461.67928223 11.42480469 460.42578125 C11.42480469 459.76578125 11.42480469 459.10578125 11.42480469 458.42578125 C10.62042969 458.08546875 10.62042969 458.08546875 9.79980469 457.73828125 C4.6250252 454.87853469 0.52187034 450.62789987 -3.57519531 446.42578125 C-4.40019531 445.60078125 -5.22519531 444.77578125 -6.07519531 443.92578125 C-7.752311 442.24866557 -9.41891098 440.56097269 -11.07519531 438.86328125 C-13.50283235 436.41681232 -13.50283235 436.41681232 -16.07519531 434.42578125 C-18.22325383 432.70733443 -20.13081826 430.90549028 -22.06231689 428.95401001 C-23.78102823 427.21785986 -25.51224508 425.49472409 -27.24462891 423.7722168 C-31.00602497 420.02873374 -34.76427409 416.28210772 -38.52148438 412.53442383 C-40.13614377 410.92479604 -41.75169916 409.31606655 -43.36816406 407.70825195 C-45.71823029 405.37040569 -48.06497183 403.02926461 -50.41113281 400.6875 C-51.12490082 399.97889328 -51.83866882 399.27028656 -52.57406616 398.54020691 C-56.54188929 394.57282189 -60.32018568 390.5153236 -63.94033813 386.22712708 C-65.69968422 384.28861478 -67.57671073 382.61434084 -69.57519531 380.92578125 C-73.02556208 378.00624014 -75.87968544 374.83865655 -78.79394531 371.39453125 C-80.60798991 369.38953459 -82.51227208 367.67133168 -84.57519531 365.92578125 C-87.33789373 363.58811336 -89.73752742 361.18847966 -92.07519531 358.42578125 C-94.9103408 355.0873178 -97.93726882 352.29788989 -101.27441406 349.47265625 C-104.16194434 346.90378381 -106.8618749 344.17631099 -109.57519531 341.42578125 C-113.46194225 337.49558674 -117.39255149 333.70475391 -121.60253906 330.1171875 C-123.8628525 328.17913658 -126.06071496 326.17983078 -128.26269531 324.17578125 C-138.72576319 314.75581063 -149.36522535 305.63958803 -161.26269531 298.05078125 C-162.02582031 297.51453125 -162.78894531 296.97828125 -163.57519531 296.42578125 C-163.57519531 295.76578125 -163.57519531 295.10578125 -163.57519531 294.42578125 C-164.29707031 294.17828125 -165.01894531 293.93078125 -165.76269531 293.67578125 C-168.85032493 292.30350142 -170.95359821 290.54802653 -173.57519531 288.42578125 C-175.25964352 287.45398421 -176.94569129 286.48446976 -178.64941406 285.546875 C-180.72855127 284.33650506 -182.66647903 282.9920355 -184.63769531 281.61328125 C-188.90594507 278.73167101 -193.36020876 276.43161032 -197.98828125 274.18139648 C-201.86522214 272.29426595 -205.66757881 270.30913298 -209.44873047 268.23681641 C-214.63937195 265.39640746 -219.69858604 262.74122578 -225.39941406 261.06640625 C-228.02274334 260.29400768 -230.5702691 259.36705379 -233.13769531 258.42578125 C-233.98460937 258.11640625 -234.83152344 257.80703125 -235.70410156 257.48828125 C-237.28166569 256.90447521 -238.85735453 256.31511669 -240.42333984 255.70092773 C-244.98586889 253.93018702 -249.54792345 252.56427982 -254.32519531 251.48828125 C-255.04473389 251.32279785 -255.76427246 251.15731445 -256.50561523 250.98681641 C-265.48874598 248.94960326 -274.51903547 247.10801306 -283.57519531 245.42578125 C-284.49349121 245.25353027 -285.41178711 245.0812793 -286.35791016 244.90380859 C-294.07494955 243.52964637 -301.75684303 242.8087651 -309.57519531 242.30078125 C-311.49138672 242.17558105 -311.49138672 242.17558105 -313.44628906 242.04785156 C-357.10697467 239.35478309 -398.89295449 245.18937124 -439.57519531 261.42578125 C-441.08339844 262.02132812 -441.08339844 262.02132812 -442.62207031 262.62890625 C-456.28942849 268.16972713 -469.14699797 274.48455487 -481.57519531 282.42578125 C-482.8188096 283.14526691 -484.06763247 283.85596342 -485.32519531 284.55078125 C-488.78154393 286.54482853 -492.06674083 288.71695934 -495.36425781 290.9609375 C-496.89212011 291.97321376 -498.44818296 292.94372608 -500.02441406 293.87890625 C-508.38584087 298.9495418 -516.01375484 305.25111098 -523.57519531 311.42578125 C-524.19700684 311.92883789 -524.81881836 312.43189453 -525.45947266 312.95019531 C-538.80390155 323.74817017 -551.28375877 335.06888109 -563.45019531 347.17578125 C-564.24731934 347.96815186 -565.04444336 348.76052246 -565.86572266 349.5769043 C-570.64143148 354.36614346 -575.17954597 359.28740538 -579.57519531 364.42578125 C-580.7147637 365.73399407 -581.85538568 367.04128988 -582.99707031 368.34765625 C-584.1066386 369.62352985 -585.21601446 370.89957082 -586.32519531 372.17578125 C-586.88851562 372.82160156 -587.45183594 373.46742188 -588.03222656 374.1328125 C-590.23255619 376.66605252 -592.37940947 379.15376021 -594.34082031 381.87890625 C-594.74816406 382.389375 -595.15550781 382.89984375 -595.57519531 383.42578125 C-596.23519531 383.42578125 -596.89519531 383.42578125 -597.57519531 383.42578125 C-597.8265625 384.14894531 -598.07792969 384.87210938 -598.33691406 385.6171875 C-599.67671346 388.6560385 -601.27583925 390.80724896 -603.38769531 393.36328125 C-604.09667969 394.22566406 -604.80566406 395.08804687 -605.53613281 395.9765625 C-606.20902344 396.78480469 -606.88191406 397.59304688 -607.57519531 398.42578125 C-608.36796875 399.40611328 -608.36796875 399.40611328 -609.17675781 400.40625 C-610.28304227 401.7680797 -611.42476034 403.10103795 -612.57519531 404.42578125 C-612.90519531 404.42578125 -613.23519531 404.42578125 -613.57519531 404.42578125 C-614.13577252 398.39957628 -612.52090893 393.56114769 -610.65722656 387.8515625 C-609.3262636 383.63764727 -608.29060791 379.38354816 -607.28613281 375.08203125 C-606.57519531 372.42578125 -606.57519531 372.42578125 -605.61425781 370.14453125 C-604.71758921 367.79836077 -604.16603087 365.69608142 -603.65722656 363.25 C-602.56582228 358.10966648 -600.95937671 353.20667484 -599.26269531 348.23828125 C-598.95074219 347.314104 -598.63878906 346.38992676 -598.31738281 345.43774414 C-596.23878324 339.30405769 -594.10311527 333.19260548 -591.89160156 327.10546875 C-590.85259212 324.2011753 -589.84394347 321.29170291 -588.85253906 318.37109375 C-588.54832031 317.48172119 -588.24410156 316.59234863 -587.93066406 315.67602539 C-587.33513215 313.9323523 -586.74495854 312.18683641 -586.16113281 310.43920898 C-584.42218477 305.37250078 -582.30273948 301.03065185 -579.57519531 296.42578125 C-578.75983546 294.36278614 -578.75983546 294.36278614 -578.26269531 292.42578125 C-575.23465528 282.74598113 -570.1987625 273.58500507 -565.62597656 264.55859375 C-564.15204483 261.56689588 -562.88184581 258.49356937 -561.57519531 255.42578125 C-556.95749606 245.62137715 -551.69425932 236.07532081 -546.03222656 226.83984375 C-544.89612003 224.95750103 -543.79660966 223.05305477 -542.71191406 221.140625 C-540.43953283 217.14716618 -538.0183995 213.25389883 -535.57519531 209.36328125 C-535.14980469 208.68201172 -534.72441406 208.00074219 -534.28613281 207.29882812 C-531.77935053 203.29643494 -529.20512906 199.34885669 -526.57519531 195.42578125 C-526.03636719 194.58273437 -525.49753906 193.7396875 -524.94238281 192.87109375 C-524.44996094 192.10539063 -523.95753906 191.3396875 -523.45019531 190.55078125 C-522.95261719 189.76960937 -522.45503906 188.9884375 -521.94238281 188.18359375 C-521.49121094 187.60351562 -521.04003906 187.0234375 -520.57519531 186.42578125 C-519.91519531 186.42578125 -519.25519531 186.42578125 -518.57519531 186.42578125 C-518.45837402 185.83659912 -518.34155273 185.24741699 -518.22119141 184.64038086 C-517.53919248 182.30235656 -516.69852669 180.92642006 -515.23925781 178.9921875 C-514.75755127 178.34983154 -514.27584473 177.70747559 -513.77954102 177.0456543 C-513.25835693 176.36672119 -512.73717285 175.68778809 -512.20019531 174.98828125 C-511.66289795 174.28034424 -511.12560059 173.57240723 -510.57202148 172.84301758 C-506.27584724 167.23008073 -501.7844237 161.80848004 -497.16894531 156.45703125 C-494.68327884 153.55209574 -492.27988778 150.5953294 -489.88769531 147.61328125 C-486.55160757 143.50317315 -483.03415101 139.7341188 -479.20410156 136.08203125 C-477.36859321 134.31948825 -477.36859321 134.31948825 -475.57519531 131.42578125 C-474.91519531 131.42578125 -474.25519531 131.42578125 -473.57519531 131.42578125 C-473.30707031 130.78640625 -473.03894531 130.14703125 -472.76269531 129.48828125 C-471.57519531 127.42578125 -471.57519531 127.42578125 -468.57519531 126.42578125 C-468.24519531 125.76578125 -467.91519531 125.10578125 -467.57519531 124.42578125 C-466.57519531 122.42578125 -466.57519531 122.42578125 -463.57519531 121.42578125 C-463.57519531 120.76578125 -463.57519531 120.10578125 -463.57519531 119.42578125 C-462.21191406 118.015625 -462.21191406 118.015625 -460.26269531 116.36328125 C-459.54082031 115.74839844 -458.81894531 115.13351562 -458.07519531 114.5 C-454.40311125 111.45331775 -450.70671435 108.43738758 -446.99316406 105.44140625 C-444.31193866 103.20632982 -441.96370887 100.8385769 -439.57519531 98.30078125 C-437.57519531 96.42578125 -437.57519531 96.42578125 -434.57519531 95.42578125 C-433.22741761 94.10705048 -431.89667749 92.77086132 -430.57519531 91.42578125 C-428.59966895 89.85287575 -426.59779585 88.31267515 -424.57519531 86.80078125 C-423.54394531 86.02476562 -422.51269531 85.24875 -421.45019531 84.44921875 C-418.57519531 82.42578125 -418.57519531 82.42578125 -416.45019531 81.40234375 C-414.43051862 80.4713856 -414.43051862 80.4713856 -412.70410156 78.5390625 C-410.18918157 76.04260063 -407.55459955 74.42807467 -404.51269531 72.61328125 C-403.34546994 71.91238794 -402.17881189 71.21054905 -401.01269531 70.5078125 C-400.43261719 70.15928223 -399.85253906 69.81075195 -399.25488281 69.45166016 C-396.80531093 67.95556989 -394.41305635 66.37427373 -392.01269531 64.80078125 C-387.30622916 61.78011072 -382.45144743 59.27442993 -377.39941406 56.8828125 C-374.50329626 55.45717118 -374.50329626 55.45717118 -371.70800781 53.5 C-368.17775796 51.16264006 -364.55732468 49.28853316 -360.76269531 47.42578125 C-359.77172852 46.93078125 -359.77172852 46.93078125 -358.76074219 46.42578125 C-354.50207515 44.31499952 -350.19541208 42.33958298 -345.8449707 40.42578125 C-343.60555216 39.43915564 -341.37478729 38.43508033 -339.14550781 37.42578125 C-331.97436927 34.1924868 -324.84172254 30.99631063 -317.40332031 28.41796875 C-314.50714572 27.4019075 -311.64474812 26.31574829 -308.77856445 25.21875 C-292.96163359 19.18405114 -276.69273204 14.90303483 -260.27294922 10.85766602 C-256.5365862 9.93338858 -252.83354966 8.93681232 -249.13769531 7.86328125 C-243.71913901 6.3549388 -238.23262357 5.41703794 -232.69262695 4.48242188 C-229.12088497 3.87975768 -225.59019743 3.23861252 -222.07519531 2.36328125 C-217.32954834 1.25626609 -212.50703498 0.78682749 -207.67051697 0.26068115 C-202.98381546 -0.25949889 -198.33417068 -0.9016962 -193.67857361 -1.64872742 C-182.65064444 -3.4070003 -171.65330891 -4.53557155 -160.51269531 -5.26171875 C-159.56653351 -5.32425842 -158.6203717 -5.3867981 -157.64553833 -5.45123291 C-105.80712901 -8.75183956 -51.17182959 -9.5764702 0 0 Z " fill="#18B6B9" transform="translate(613.5751953125,620.57421875)"/>
<path d="M0 0 C5.22553187 0.02848477 10.44978893 0.01147641 15.67527771 -0.01720047 C38.07881387 -0.12111495 60.22639404 0.64615605 82.52050781 2.94091797 C83.51446564 3.04226421 84.50842346 3.14361046 85.53250122 3.2480278 C97.98814171 4.54770713 110.26293107 6.41237645 122.56201172 8.7684021 C126.49652849 9.52126459 130.42900618 10.15507936 134.39550781 10.71435547 C139.43020336 11.45878516 144.27973536 12.58337275 149.20019531 13.87451172 C152.39695826 14.68387028 155.60291933 15.36360064 158.83300781 16.02685547 C164.71018957 17.2665735 170.52195902 18.69504712 176.33300781 20.21435547 C177.54742554 20.52928955 177.54742554 20.52928955 178.78637695 20.85058594 C182.7431079 21.89869915 186.47765353 23.0999292 190.27050781 24.65185547 C191.72125199 24.99788102 193.18015503 25.31162615 194.64550781 25.58935547 C198.06503451 26.31250128 201.03844665 27.34361167 204.22363281 28.81201172 C206.85675287 29.89239495 209.53995758 30.6618401 212.27050781 31.46435547 C219.80960231 33.7286865 227.00085098 36.65656256 234.27050781 39.65185547 C236.04032501 40.36272387 237.81102754 41.07139624 239.58300781 41.77685547 C240.36804687 42.09267578 241.15308594 42.40849609 241.96191406 42.73388672 C243.50644575 43.3480406 245.05606171 43.94955285 246.61035156 44.53857422 C253.40930269 47.15016485 259.86280559 50.36562028 266.34375 53.67236328 C269.7268183 55.39218969 273.12462298 57.08251973 276.52050781 58.77685547 C277.85911375 59.44599774 279.1976571 60.11526524 280.53613281 60.78466797 C281.16841797 61.10081055 281.80070312 61.41695312 282.45214844 61.74267578 C286.39160156 63.71240234 290.33105469 65.68212891 294.27050781 67.65185547 C294.27050781 68.31185547 294.27050781 68.97185547 294.27050781 69.65185547 C295.07488281 69.87873047 295.87925781 70.10560547 296.70800781 70.33935547 C301.20107443 71.9946958 305.14355214 74.2439179 309.27050781 76.65185547 C310.19476562 77.17650391 311.11902344 77.70115234 312.07128906 78.24169922 C312.98265625 78.76892578 313.89402344 79.29615234 314.83300781 79.83935547 C316.10337891 80.5721875 316.10337891 80.5721875 317.39941406 81.31982422 C318.016875 81.75939453 318.63433594 82.19896484 319.27050781 82.65185547 C319.27050781 83.31185547 319.27050781 83.97185547 319.27050781 84.65185547 C320.05425781 84.83748047 320.83800781 85.02310547 321.64550781 85.21435547 C325.92193281 86.91017917 329.212521 89.28212062 332.90332031 91.99560547 C334.97662845 93.44623691 336.97797446 94.59538849 339.27050781 95.65185547 C339.27050781 96.31185547 339.27050781 96.97185547 339.27050781 97.65185547 C339.97175781 97.87873047 340.67300781 98.10560547 341.39550781 98.33935547 C344.88699012 99.93329305 347.35630546 102.17168325 350.27050781 104.65185547 C352.48638129 105.93037834 352.48638129 105.93037834 354.27050781 106.65185547 C354.27050781 107.31185547 354.27050781 107.97185547 354.27050781 108.65185547 C355.27597656 108.96316406 355.27597656 108.96316406 356.30175781 109.28076172 C360.3191764 111.13617478 363.38976862 113.76388126 366.77050781 116.58935547 C367.82564575 117.45898926 367.82564575 117.45898926 368.90209961 118.34619141 C373.8577043 122.44143639 378.77302384 126.58510803 383.66894531 130.75146484 C389.66784609 135.8557927 395.74509547 140.8678166 401.92675781 145.74951172 C404.56133878 147.88791327 406.87211159 150.25345925 409.27050781 152.65185547 C410.09550781 153.31185547 410.92050781 153.97185547 411.77050781 154.65185547 C414.48648007 156.82463328 416.83885173 159.16364925 419.27050781 161.65185547 C423.17308929 165.6385443 427.07762205 169.5397257 431.33300781 173.15185547 C434.7070871 176.04580262 437.5318866 179.18611959 440.39624023 182.57568359 C442.16157143 184.53118398 443.97143239 186.20357231 445.98144531 187.90185547 C450.30961361 191.63846096 454.3652943 195.59834593 458.39550781 199.65185547 C459.07226562 200.32474609 459.74902344 200.99763672 460.44628906 201.69091797 C464.13225151 205.38400994 467.60814349 209.16782421 470.96582031 213.16015625 C472.57233863 214.99695021 474.31698595 216.55015163 476.20800781 218.08935547 C478.98977032 220.44883904 481.41493268 222.86701836 483.77050781 225.65185547 C486.1081757 228.41455388 488.5078094 230.81418758 491.27050781 233.15185547 C494.72087458 236.07139658 497.57499794 239.23898016 500.48925781 242.68310547 C502.30330241 244.68810213 504.20758458 246.40630504 506.27050781 248.15185547 C509.03320623 250.48952336 511.43283992 252.88915705 513.77050781 255.65185547 C516.66389644 259.06238822 519.77175312 261.926542 523.18066406 264.81201172 C525.42682137 266.78946983 527.49711128 268.88146813 529.58300781 271.02685547 C533.82377356 275.3491744 538.40450254 279.08940692 543.18066406 282.80419922 C544.21513672 283.71878906 544.21513672 283.71878906 545.27050781 284.65185547 C545.27050781 285.31185547 545.27050781 285.97185547 545.27050781 286.65185547 C545.79644531 286.86712891 546.32238281 287.08240234 546.86425781 287.30419922 C550.20510539 289.1752908 552.91881047 291.68825332 555.77050781 294.21435547 C566.39331146 303.48952218 566.39331146 303.48952218 578.11035156 311.27294922 C578.82320312 311.72798828 579.53605469 312.18302734 580.27050781 312.65185547 C580.27050781 313.31185547 580.27050781 313.97185547 580.27050781 314.65185547 C581.35332031 315.02310547 581.35332031 315.02310547 582.45800781 315.40185547 C585.53945516 316.77138762 587.67653232 318.51182568 590.27050781 320.65185547 C591.93178471 321.66078403 593.59908177 322.65983088 595.27050781 323.65185547 C596.91733672 324.73367478 598.56311807 325.81708997 600.20800781 326.90185547 C605.49710127 330.2792284 610.95525173 333.08494131 616.59472656 335.82763672 C619.76009601 337.37603488 622.84911076 339.04026587 625.93676758 340.73730469 C635.57236816 346.01970295 645.45226471 350.01765406 656.05175781 352.97607422 C658.27050781 353.65185547 658.27050781 353.65185547 660.59863281 354.62060547 C663.8447738 355.87350199 667.13720438 356.68702246 670.52050781 357.46435547 C671.2472168 357.63177246 671.97392578 357.79918945 672.72265625 357.97167969 C675.23640593 358.5421355 677.75281875 359.09904655 680.27050781 359.65185547 C681.22699219 359.86277832 682.18347656 360.07370117 683.16894531 360.29101562 C696.76000557 363.24986631 710.17239613 365.49608909 724.05029297 366.48876953 C725.99406192 366.63154913 727.93537616 366.80697863 729.87597656 366.98779297 C763.4064632 369.95225654 798.20641054 366.92113715 830.27050781 356.65185547 C832.43607773 356.00235408 834.60262226 355.35608545 836.77050781 354.71435547 C871.07297546 344.14704895 903.24412318 326.62955497 931.65722656 304.81982422 C932.37523437 304.26939453 933.09324219 303.71896484 933.83300781 303.15185547 C934.45304687 302.66716797 935.07308594 302.18248047 935.71191406 301.68310547 C937.27050781 300.65185547 937.27050781 300.65185547 939.27050781 300.65185547 C939.64949219 299.75466797 939.64949219 299.75466797 940.03613281 298.83935547 C941.43447059 296.36128852 942.72277333 295.31037058 945.02050781 293.65185547 C953.7384004 287.10638272 962.20564394 280.01991564 969.76660156 272.15576172 C971.35860192 270.56376136 973.03353228 269.14592871 974.77050781 267.71435547 C979.75683248 263.52181792 983.77048585 258.47883529 987.89550781 253.46435547 C990.23045475 250.69928673 992.71041904 248.2081794 995.27050781 245.65185547 C1000.82621202 239.75673525 1006.12284301 233.78482807 1010.89550781 227.23388672 C1011.34925781 226.71181641 1011.80300781 226.18974609 1012.27050781 225.65185547 C1012.93050781 225.65185547 1013.59050781 225.65185547 1014.27050781 225.65185547 C1014.5115625 224.94029297 1014.75261719 224.22873047 1015.00097656 223.49560547 C1016.45958181 220.22832972 1018.29046025 217.8952065 1020.58300781 215.15185547 C1021.34226562 214.23404297 1022.10152344 213.31623047 1022.88378906 212.37060547 C1025.24534738 209.68051612 1027.71070221 207.15276289 1030.27050781 204.65185547 C1030.83108502 210.67806044 1029.21622143 215.51648902 1027.35253906 221.22607422 C1026.0215761 225.43998945 1024.98592041 229.69408856 1023.98144531 233.99560547 C1023.27050781 236.65185547 1023.27050781 236.65185547 1022.30957031 238.93310547 C1021.41290171 241.27927595 1020.86134337 243.3815553 1020.35253906 245.82763672 C1019.26113478 250.96797024 1017.65468921 255.87096188 1015.95800781 260.83935547 C1015.49007813 262.22562134 1015.49007813 262.22562134 1015.01269531 263.63989258 C1012.93409574 269.77357903 1010.79842777 275.88503124 1008.58691406 281.97216797 C1007.54790462 284.87646142 1006.53925597 287.78593381 1005.54785156 290.70654297 C1005.09152344 292.04060181 1005.09152344 292.04060181 1004.62597656 293.40161133 C1004.03044465 295.14528442 1003.44027104 296.89080031 1002.85644531 298.63842773 C1001.11749727 303.70513593 998.99805198 308.04698487 996.27050781 312.65185547 C995.45514796 314.71485058 995.45514796 314.71485058 994.95800781 316.65185547 C991.92996778 326.33165559 986.894075 335.49263165 982.32128906 344.51904297 C980.84735733 347.51074084 979.57715831 350.58406735 978.27050781 353.65185547 C975.21277763 360.12868394 971.72832983 366.38286906 968.27050781 372.65185547 C967.63435547 373.81587891 967.63435547 373.81587891 966.98535156 375.00341797 C957.82801027 391.66919023 947.43481336 407.74961931 937.02050781 423.65185547 C936.56160156 424.35310547 936.10269531 425.05435547 935.62988281 425.77685547 C934.27050781 427.65185547 934.27050781 427.65185547 932.81347656 429.10107422 C930.86922531 431.05516978 929.40960901 433.20286514 927.83300781 435.46435547 C924.06987947 440.70091458 920.00401242 445.58105747 915.77368164 450.44458008 C912.61112635 454.08054487 909.53600981 457.76659218 906.52050781 461.52685547 C903.20728578 465.61859415 899.70875757 469.36326176 895.89941406 472.99560547 C894.06390571 474.75814846 894.06390571 474.75814846 892.27050781 477.65185547 C891.61050781 477.65185547 890.95050781 477.65185547 890.27050781 477.65185547 C890.00238281 478.29123047 889.73425781 478.93060547 889.45800781 479.58935547 C888.27050781 481.65185547 888.27050781 481.65185547 885.27050781 482.65185547 C884.94050781 483.31185547 884.61050781 483.97185547 884.27050781 484.65185547 C883.94050781 485.31185547 883.61050781 485.97185547 883.27050781 486.65185547 C882.28050781 486.98185547 881.29050781 487.31185547 880.27050781 487.65185547 C879.94050781 488.64185547 879.61050781 489.63185547 879.27050781 490.65185547 C877.77441406 492.19482422 877.77441406 492.19482422 875.83300781 493.83935547 C875.11757812 494.44779297 874.40214844 495.05623047 873.66503906 495.68310547 C870.33531424 498.4207585 866.96326365 501.10226452 863.56738281 503.75732422 C861.21508058 505.62647468 861.21508058 505.62647468 859.09863281 507.89013672 C857.27050781 509.65185547 857.27050781 509.65185547 855.27050781 509.65185547 C854.94050781 510.64185547 854.61050781 511.63185547 854.27050781 512.65185547 C853.28050781 512.98185547 852.29050781 513.31185547 851.27050781 513.65185547 C850.24957031 514.67279297 850.24957031 514.67279297 849.20800781 515.71435547 C848.56863281 516.35373047 847.92925781 516.99310547 847.27050781 517.65185547 C846.61050781 517.65185547 845.95050781 517.65185547 845.27050781 517.65185547 C845.27050781 518.31185547 845.27050781 518.97185547 845.27050781 519.65185547 C843.25878906 521.30810547 843.25878906 521.30810547 840.58300781 523.15185547 C839.71289062 523.76029297 838.84277344 524.36873047 837.94628906 524.99560547 C835.43641862 526.54916031 833.0409242 527.65350722 830.27050781 528.65185547 C830.27050781 529.31185547 830.27050781 529.97185547 830.27050781 530.65185547 C828.17031767 532.12494658 826.09283053 533.46495182 823.89550781 534.77685547 C822.99058594 535.33566406 822.99058594 535.33566406 822.06738281 535.90576172 C817.54085465 538.65185547 817.54085465 538.65185547 815.27050781 538.65185547 C815.27050781 539.31185547 815.27050781 539.97185547 815.27050781 540.65185547 C813.29394531 542.05419922 813.29394531 542.05419922 810.64550781 543.58935547 C809.72898437 544.12173828 808.81246094 544.65412109 807.86816406 545.20263672 C805.04352921 546.77848564 802.17608893 548.23134914 799.27050781 549.65185547 C797.62074401 550.58995646 795.97144899 551.52895523 794.32910156 552.47998047 C790.88957683 554.43796419 787.4011255 556.30623531 783.91894531 558.18701172 C782.21217206 559.13102347 780.52695168 560.1156698 778.87207031 561.14794922 C775.77033301 562.94099556 772.57400865 564.26685833 769.27050781 565.65185547 C766.78082244 566.79635569 764.30839341 567.97680443 761.83300781 569.15185547 C757.36193199 571.25633991 752.9087776 573.27881763 748.24707031 574.92529297 C745.77872703 575.83262864 743.37658869 576.8691281 740.95800781 577.90185547 C728.32338906 583.19560079 715.42820414 587.8394973 702.27050781 591.65185547 C701.30628906 591.94318359 700.34207031 592.23451172 699.34863281 592.53466797 C682.42019628 597.54582207 665.16786071 602.05173355 647.76269531 605.04638672 C645.00570482 605.52438843 642.28198341 606.06126931 639.54394531 606.63232422 C634.06540834 607.73806026 628.56524623 608.46722698 623.02050781 609.15185547 C621.11934606 609.39048405 619.21830558 609.63008055 617.31738281 609.87060547 C615.84676392 610.05550537 615.84676392 610.05550537 614.34643555 610.24414062 C611.13311139 610.67006739 607.93217941 611.15732701 604.72753906 611.64404297 C544.12814366 620.30227745 476.06717503 619.75844357 415.81396484 609.07763672 C412.04305029 608.44637592 408.25687938 608.01272922 404.45800781 607.58935547 C398.63226885 606.89858054 393.04866538 605.7760919 387.35644531 604.37060547 C384.29475765 603.65750353 381.25166486 603.13095424 378.14550781 602.65185547 C373.28486719 601.8843859 368.65267104 600.72862651 363.92675781 599.37060547 C361.3429081 598.67144614 358.77666905 598.13910755 356.14550781 597.65185547 C352.16620174 596.89478623 348.47752218 595.7702731 344.66113281 594.42919922 C342.01282313 593.56806584 339.35532206 592.91808157 336.64550781 592.27685547 C331.23138507 590.9647594 325.97891469 589.2927524 320.71313477 587.49047852 C317.10866493 586.25735817 313.50008326 585.12019235 309.83300781 584.08935547 C306.08610022 582.99496167 302.81057069 581.5069965 299.3737793 579.6730957 C297.31119739 578.67161223 295.31275021 577.95873376 293.12597656 577.27685547 C288.17780958 575.66293901 283.42132018 573.71525663 278.64550781 571.65185547 C277.75033447 571.26594238 276.85516113 570.8800293 275.93286133 570.48242188 C261.95936266 564.39794888 247.93257981 558.16409391 234.91113281 550.20654297 C231.04548647 547.93061509 227.01640416 546.02304735 222.96191406 544.10888672 C220.09938377 542.55921502 217.77775495 540.71835933 215.27050781 538.65185547 C213.59711412 537.68643603 211.92249881 536.72271512 210.23144531 535.78857422 C207.21823225 534.04187103 204.35977348 532.07541712 201.48144531 530.11669922 C199.98832262 529.12743948 198.47133478 528.17342078 196.93457031 527.25341797 C186.75421841 521.13326506 177.16675036 514.22882716 167.84570312 506.88427734 C165.25964518 504.86096356 162.63555776 502.88747652 160.02050781 500.90185547 C152.6407816 495.25009271 145.48640893 489.32547719 138.34521484 483.37695312 C136.33486637 481.70536895 134.31699127 480.04327026 132.29785156 478.38232422 C131.10084368 477.38930854 129.90420717 476.39584496 128.70800781 475.40185547 C127.8765625 474.72135132 127.8765625 474.72135132 127.02832031 474.02709961 C125.73743768 472.94615218 124.49782627 471.80446759 123.27050781 470.65185547 C123.27050781 469.99185547 123.27050781 469.33185547 123.27050781 468.65185547 C122.54863281 468.42498047 121.82675781 468.19810547 121.08300781 467.96435547 C117.64343232 466.35922024 115.86824435 464.43082944 113.27050781 461.65185547 C112.00567545 460.35431193 110.73430492 459.06312365 109.45800781 457.77685547 C108.8534375 457.16068359 108.24886719 456.54451172 107.62597656 455.90966797 C105.70101629 454.06451533 103.74537354 452.33444952 101.72113037 450.60247803 C96.83700144 446.33731628 92.27470529 441.78137694 87.70507812 437.18408203 C86.29093737 435.76769993 84.87679649 434.35131796 83.46265078 432.93494081 C81.95858078 431.4275217 80.45576631 429.9188613 78.95331573 428.40982819 C75.81230287 425.25519355 72.66739007 422.10446583 69.52191162 418.95428467 C62.85179392 412.27311512 56.18593928 405.58769972 49.52050781 398.90185547 C42.30900582 391.66830164 35.09675656 384.43550193 27.87962985 377.20755935 C24.75410306 374.07705849 21.63102842 370.94413802 18.50982618 367.8093257 C17.0371643 366.33099789 15.56336041 364.85382018 14.08903503 363.37715149 C12.2934896 361.57873839 10.49974413 359.77852566 8.70814514 357.97618103 C7.91486313 357.18282852 7.12158112 356.38947601 6.30426025 355.57208252 C5.27453283 354.53902418 5.27453283 354.53902418 4.22400284 353.48509598 C2.29580855 351.59617995 2.29580855 351.59617995 0.01839828 350.03184128 C-0.55840557 349.57644596 -1.13520943 349.12105064 -1.72949219 348.65185547 C-1.72949219 347.99185547 -1.72949219 347.33185547 -1.72949219 346.65185547 C-2.31730469 346.39275391 -2.90511719 346.13365234 -3.51074219 345.86669922 C-5.88399902 344.56725754 -7.37570149 343.17347518 -9.22949219 341.21435547 C-11.160616 339.21263143 -12.92787629 337.50433909 -15.16699219 335.83935547 C-15.68261719 335.44748047 -16.19824219 335.05560547 -16.72949219 334.65185547 C-16.72949219 333.99185547 -16.72949219 333.33185547 -16.72949219 332.65185547 C-17.28636719 332.58998047 -17.84324219 332.52810547 -18.41699219 332.46435547 C-20.99854698 331.5573227 -22.26465933 330.27821048 -24.11621094 328.31201172 C-28.75123774 323.54231102 -33.71760411 318.77590471 -39.35449219 315.21435547 C-40.53011719 314.44091797 -40.53011719 314.44091797 -41.72949219 313.65185547 C-41.72949219 312.99185547 -41.72949219 312.33185547 -41.72949219 311.65185547 C-43.37949219 310.99185547 -45.02949219 310.33185547 -46.72949219 309.65185547 C-46.72949219 308.99185547 -46.72949219 308.33185547 -46.72949219 307.65185547 C-47.44492187 307.39404297 -48.16035156 307.13623047 -48.89746094 306.87060547 C-51.9010933 305.57800782 -54.36454591 304.02408457 -57.04199219 302.15185547 C-57.925 301.54341797 -58.80800781 300.93498047 -59.71777344 300.30810547 C-60.71357422 299.48826172 -60.71357422 299.48826172 -61.72949219 298.65185547 C-61.72949219 297.99185547 -61.72949219 297.33185547 -61.72949219 296.65185547 C-63.37949219 296.32185547 -65.02949219 295.99185547 -66.72949219 295.65185547 C-66.72949219 294.99185547 -66.72949219 294.33185547 -66.72949219 293.65185547 C-67.46296875 293.37599609 -68.19644531 293.10013672 -68.95214844 292.81591797 C-71.54583832 291.72882995 -73.78159329 290.50687766 -76.16699219 289.02685547 C-88.91889124 281.25408838 -101.73560434 273.95700101 -115.72949219 268.65185547 C-116.90640625 268.20197266 -118.08332031 267.75208984 -119.29589844 267.28857422 C-124.67340813 265.27798449 -130.10345979 263.42720435 -135.54199219 261.58935547 C-137.06663086 261.06245117 -137.06663086 261.06245117 -138.62207031 260.52490234 C-144.35673866 258.59141633 -149.93404064 257.12106529 -155.90576172 256.1496582 C-158.95989818 255.6112366 -161.94032589 254.89797735 -164.95214844 254.15966797 C-172.29838617 252.43407807 -179.68336338 251.44984866 -187.16699219 250.52685547 C-188.46958984 250.35798828 -189.7721875 250.18912109 -191.11425781 250.01513672 C-229.90154851 245.11121843 -273.10833145 246.45226593 -310.02636719 260.65576172 C-313.04131044 261.76675959 -316.08539391 262.68021095 -319.16699219 263.58935547 C-325.55500468 265.52167242 -331.62776497 267.96083731 -337.72949219 270.65185547 C-338.72758911 271.0906604 -338.72758911 271.0906604 -339.74584961 271.53833008 C-345.37852369 274.02563705 -350.9700311 276.59407559 -356.54199219 279.21435547 C-357.37408203 279.60042969 -358.20617187 279.98650391 -359.06347656 280.38427734 C-359.86720703 280.76261719 -360.6709375 281.14095703 -361.49902344 281.53076172 C-362.21678955 281.86664307 -362.93455566 282.20252441 -363.67407227 282.54858398 C-365.87616476 283.73058374 -367.76083519 285.11700126 -369.72949219 286.65185547 C-373.6094426 289.16904925 -377.0596991 291.08581994 -381.72949219 291.65185547 C-381.72949219 292.31185547 -381.72949219 292.97185547 -381.72949219 293.65185547 C-383.40917969 294.94091797 -383.40917969 294.94091797 -385.60449219 296.27685547 C-386.32378906 296.72287109 -387.04308594 297.16888672 -387.78417969 297.62841797 C-389.72949219 298.65185547 -389.72949219 298.65185547 -391.72949219 298.65185547 C-391.72949219 299.31185547 -391.72949219 299.97185547 -391.72949219 300.65185547 C-393.37949219 300.98185547 -395.02949219 301.31185547 -396.72949219 301.65185547 C-396.72949219 302.31185547 -396.72949219 302.97185547 -396.72949219 303.65185547 C-398.74121094 305.30810547 -398.74121094 305.30810547 -401.41699219 307.15185547 C-402.28710938 307.76029297 -403.15722656 308.36873047 -404.05371094 308.99560547 C-406.72949219 310.65185547 -406.72949219 310.65185547 -409.47949219 311.73779297 C-411.90245744 312.46416004 -411.90245744 312.46416004 -413.04199219 314.77685547 C-413.26886719 315.39560547 -413.49574219 316.01435547 -413.72949219 316.65185547 C-414.71949219 316.65185547 -415.70949219 316.65185547 -416.72949219 316.65185547 C-417.05949219 317.64185547 -417.38949219 318.63185547 -417.72949219 319.65185547 C-419.78144924 321.36181968 -421.82524807 322.95713273 -423.97949219 324.52685547 C-428.23633198 327.65491527 -432.03465968 330.8468262 -435.72949219 334.65185547 C-436.51324219 335.24998047 -437.29699219 335.84810547 -438.10449219 336.46435547 C-440.39181916 338.37046128 -442.12752534 340.20693424 -444.04199219 342.46435547 C-446.44494435 345.28430584 -448.9003518 347.76049309 -451.72949219 350.15185547 C-455.2251453 353.11335656 -458.17986797 356.31811489 -461.13964844 359.80810547 C-463.21424886 362.21403029 -465.48381291 364.40617619 -467.72949219 366.65185547 C-468.96699219 368.13685547 -468.96699219 368.13685547 -470.22949219 369.65185547 C-472.72949219 372.65185547 -472.72949219 372.65185547 -474.99902344 374.85107422 C-478.86486519 378.81646555 -482.15886367 383.17900099 -485.53222656 387.56396484 C-486.04462891 388.21816406 -486.55703125 388.87236328 -487.08496094 389.54638672 C-487.54539795 390.14298096 -488.00583496 390.7395752 -488.48022461 391.35424805 C-489.09861206 391.99656372 -489.09861206 391.99656372 -489.72949219 392.65185547 C-490.38949219 392.65185547 -491.04949219 392.65185547 -491.72949219 392.65185547 C-491.83261719 393.29123047 -491.93574219 393.93060547 -492.04199219 394.58935547 C-492.26886719 395.26998047 -492.49574219 395.95060547 -492.72949219 396.65185547 C-493.71949219 396.98185547 -494.70949219 397.31185547 -495.72949219 397.65185547 C-496.43625501 399.30191866 -497.09684337 400.97198116 -497.72949219 402.65185547 C-498.83820018 404.29661332 -500.00687562 405.902411 -501.22949219 407.46435547 C-501.83792969 408.25455078 -502.44636719 409.04474609 -503.07324219 409.85888672 C-503.61980469 410.45056641 -504.16636719 411.04224609 -504.72949219 411.65185547 C-505.38949219 411.65185547 -506.04949219 411.65185547 -506.72949219 411.65185547 C-506.05290564 405.89698141 -504.72098118 400.47876896 -503.16699219 394.90185547 C-502.90595703 393.95665039 -502.64492188 393.01144531 -502.37597656 392.03759766 C-494.49659067 363.72507235 -485.52220217 336.13583599 -474.66699219 308.83935547 C-474.25545898 307.80157959 -473.84392578 306.76380371 -473.41992188 305.69458008 C-471.06141609 299.80160436 -468.57269563 293.9936806 -465.91552734 288.22924805 C-464.82941469 285.86899872 -463.77205368 283.49863128 -462.72558594 281.12060547 C-460.4964513 276.09191037 -458.15300332 271.11974106 -455.79199219 266.15185547 C-455.37498047 265.26626953 -454.95796875 264.38068359 -454.52832031 263.46826172 C-451.80380996 257.73289372 -448.85705478 252.17604158 -445.72949219 246.65185547 C-444.81062824 244.94470298 -443.89359324 243.23656299 -442.97949219 241.52685547 C-436.10846695 228.92413315 -428.40884915 216.77289583 -420.72949219 204.65185547 C-419.79169922 203.16298828 -419.79169922 203.16298828 -418.83496094 201.64404297 C-418.30515625 200.82162109 -417.77535156 199.99919922 -417.22949219 199.15185547 C-416.78605469 198.46091797 -416.34261719 197.76998047 -415.88574219 197.05810547 C-415.50417969 196.59404297 -415.12261719 196.12998047 -414.72949219 195.65185547 C-414.06949219 195.65185547 -413.40949219 195.65185547 -412.72949219 195.65185547 C-412.6126709 195.06267334 -412.49584961 194.47349121 -412.37548828 193.86645508 C-411.69348935 191.52843078 -410.85282356 190.15249428 -409.39355469 188.21826172 C-408.91152588 187.5755835 -408.42949707 186.93290527 -407.93286133 186.27075195 C-407.41199951 185.59214111 -406.8911377 184.91353027 -406.35449219 184.21435547 C-405.82009521 183.50931885 -405.28569824 182.80428223 -404.73510742 182.07788086 C-400.78204671 176.90822511 -396.65878239 171.90646118 -392.40405273 166.98339844 C-389.99887809 164.1934136 -387.74664383 161.37978184 -385.66699219 158.33935547 C-385.02761719 157.45248047 -384.38824219 156.56560547 -383.72949219 155.65185547 C-383.06949219 155.65185547 -382.40949219 155.65185547 -381.72949219 155.65185547 C-381.50261719 155.11560547 -381.27574219 154.57935547 -381.04199219 154.02685547 C-379.2737913 150.82725385 -377.19279016 148.36148324 -374.72949219 145.65185547 C-374.06949219 145.65185547 -373.40949219 145.65185547 -372.72949219 145.65185547 C-372.46136719 145.01248047 -372.19324219 144.37310547 -371.91699219 143.71435547 C-370.72949219 141.65185547 -370.72949219 141.65185547 -367.72949219 140.65185547 C-367.39949219 139.99185547 -367.06949219 139.33185547 -366.72949219 138.65185547 C-365.72949219 136.65185547 -365.72949219 136.65185547 -362.72949219 135.65185547 C-361.99625423 133.63677189 -361.99625423 133.63677189 -361.72949219 131.65185547 C-361.11074219 131.56935547 -360.49199219 131.48685547 -359.85449219 131.40185547 C-357.59482889 130.87279569 -357.59482889 130.87279569 -356.79199219 128.90185547 C-356.44136719 128.15935547 -356.09074219 127.41685547 -355.72949219 126.65185547 C-352.09191851 122.70248976 -348.07150419 118.83453933 -343.72949219 115.65185547 C-343.06949219 115.65185547 -342.40949219 115.65185547 -341.72949219 115.65185547 C-341.42205078 114.80494141 -341.42205078 114.80494141 -341.10839844 113.94091797 C-339.23326451 110.82808941 -336.58814287 109.07678578 -333.66699219 107.02685547 C-329.60935144 104.38920387 -329.60935144 104.38920387 -326.72949219 100.65185547 C-325.07416596 99.63319318 -323.40689081 98.63374734 -321.72949219 97.65185547 C-321.06949219 96.99185547 -320.40949219 96.33185547 -319.72949219 95.65185547 C-318.73949219 95.65185547 -317.74949219 95.65185547 -316.72949219 95.65185547 C-316.51292969 95.06919922 -316.29636719 94.48654297 -316.07324219 93.88623047 C-314.28404705 90.91117344 -312.17215353 89.71391535 -309.22949219 87.90185547 C-307.75996094 86.98146484 -307.75996094 86.98146484 -306.26074219 86.04248047 C-303.72949219 84.65185547 -303.72949219 84.65185547 -301.72949219 84.65185547 C-301.39949219 83.66185547 -301.06949219 82.67185547 -300.72949219 81.65185547 C-298.0686525 79.6578929 -295.11706894 77.65185547 -291.72949219 77.65185547 C-291.72949219 76.99185547 -291.72949219 76.33185547 -291.72949219 75.65185547 C-290.96636719 75.30123047 -290.20324219 74.95060547 -289.41699219 74.58935547 C-286.32641913 73.05492576 -283.49084563 71.22738985 -280.60449219 69.33935547 C-275.69223226 66.16280539 -270.64543597 63.54411689 -265.38574219 60.99560547 C-262.3248772 59.44716789 -259.5706519 57.56798644 -256.72949219 55.65185547 C-255.05925604 54.91309717 -253.38720876 54.17699785 -251.69433594 53.49169922 C-249.41958496 52.51939015 -247.24251141 51.40704214 -245.04199219 50.27685547 C-240.36483819 47.90993208 -235.59445893 45.88576638 -230.74121094 43.90966797 C-227.82145594 42.69026316 -224.96658949 41.37514955 -222.10449219 40.02685547 C-217.84907104 38.06422589 -213.63457149 36.65611262 -209.12792969 35.39794922 C-205.99205933 34.4224586 -203.10368068 33.05864397 -200.13085938 31.67529297 C-197.79955719 30.68171644 -195.51604873 29.93759041 -193.08105469 29.24169922 C-188.74541319 27.97068764 -184.47286023 26.56928167 -180.19995117 25.1027832 C-170.46223977 21.76955662 -160.77943278 18.89686132 -150.72949219 16.65185547 C-149.76253418 16.43174805 -148.79557617 16.21164063 -147.79931641 15.98486328 C-98.9736919 4.92805519 -50.04605685 -0.27503531 0 0 Z " fill="#17BAB8" transform="translate(1017.7294921875,-0.65185546875)"/>
</svg>
